<?xml version="1.0" encoding="UTF-8" standalone="no"?>
<!-- Generator: Adobe Illustrator 14.0.0, SVG Export Plug-In . SVG Version: 6.00 Build 43363)  -->

<svg
   xmlns:dc="http://purl.org/dc/elements/1.1/"
   xmlns:cc="http://creativecommons.org/ns#"
   xmlns:rdf="http://www.w3.org/1999/02/22-rdf-syntax-ns#"
   xmlns:svg="http://www.w3.org/2000/svg"
   xmlns="http://www.w3.org/2000/svg"
   xmlns:sodipodi="http://sodipodi.sourceforge.net/DTD/sodipodi-0.dtd"
   xmlns:inkscape="http://www.inkscape.org/namespaces/inkscape"
   version="1.1"
   id="Layer_1"
   x="0px"
   y="0px"
   width="841.89px"
   height="595.275px"
   viewBox="0 0 841.89 595.275"
   enable-background="new 0 0 841.89 595.275"
   xml:space="preserve"
   inkscape:version="0.91 r13725"
   sodipodi:docname="meruvian-masterdesign.svg"><metadata
     id="metadata4968"><rdf:RDF><cc:Work
         rdf:about=""><dc:format>image/svg+xml</dc:format><dc:type
           rdf:resource="http://purl.org/dc/dcmitype/StillImage" /><dc:title></dc:title></cc:Work></rdf:RDF></metadata><defs
     id="defs4966" /><sodipodi:namedview
     pagecolor="#ffffff"
     bordercolor="#666666"
     borderopacity="1"
     objecttolerance="10"
     gridtolerance="10"
     guidetolerance="10"
     inkscape:pageopacity="0"
     inkscape:pageshadow="2"
     inkscape:window-width="640"
     inkscape:window-height="480"
     id="namedview4964"
     showgrid="false"
     inkscape:zoom="0.50022772"
     inkscape:cx="420.94501"
     inkscape:cy="297.63751"
     inkscape:window-x="26"
     inkscape:window-y="18"
     inkscape:window-maximized="0"
     inkscape:current-layer="Layer_1" /><g
     inkscape:export-filename="/home/mervo/Desktop/mip/mip-suites-1.1.png"
     inkscape:export-ydpi="162"
     inkscape:export-xdpi="162"
     transform="matrix(7.0268892,0,0,8.8270317,-3815.0502,-7949.2092)"
     id="g7525"><g
       transform="matrix(0.15104719,0,0,0.15104719,543.28061,857.08456)"
       id="g7527"><g
         transform="matrix(0.76808982,0,0,0.76808982,55.057732,113.0402)"
         id="g7529"><radialGradient
           gradientUnits="userSpaceOnUse"
           gradientTransform="matrix(1,0,0,0.9989,0,0.4656)"
           r="120.5698"
           cy="236.6138"
           cx="190.2646"
           id="radialGradient7531"><stop
             id="stop7533"
             style="stop-color:#FFFFFF"
             offset="0" /><stop
             id="stop7535"
             style="stop-color:#94DAF8"
             offset="0.1552" /><stop
             id="stop7537"
             style="stop-color:#00AEEF"
             offset="0.3989" /><stop
             id="stop7539"
             style="stop-color:#009EDD"
             offset="0.4947" /><stop
             id="stop7541"
             style="stop-color:#438BCA"
             offset="0.617" /><stop
             id="stop7543"
             style="stop-color:#707ABB"
             offset="0.7327" /><stop
             id="stop7545"
             style="stop-color:#856EB1"
             offset="0.8385" /><stop
             id="stop7547"
             style="stop-color:#9165AB"
             offset="0.931" /><stop
             id="stop7549"
             style="stop-color:#9561A8"
             offset="1" /></radialGradient><radialGradient
           gradientUnits="userSpaceOnUse"
           gradientTransform="matrix(1,0,0,0.9989,0,0.4656)"
           r="131.50951"
           cy="255.9399"
           cx="182.2114"
           id="radialGradient7551"><stop
             id="stop7553"
             style="stop-color:#FFFFFF"
             offset="0" /><stop
             id="stop7555"
             style="stop-color:#FDFDFD"
             offset="0.0179" /><stop
             id="stop7557"
             style="stop-color:#DADADA"
             offset="0.3867" /><stop
             id="stop7559"
             style="stop-color:#CCCCCC"
             offset="0.5843" /><stop
             id="stop7561"
             style="stop-color:#BABABA"
             offset="0.6155" /><stop
             id="stop7563"
             style="stop-color:#8A8A8A"
             offset="0.7072" /><stop
             id="stop7565"
             style="stop-color:#646464"
             offset="0.7944" /><stop
             id="stop7567"
             style="stop-color:#494949"
             offset="0.8747" /><stop
             id="stop7569"
             style="stop-color:#393939"
             offset="0.9457" /><stop
             id="stop7571"
             style="stop-color:#333333"
             offset="1" /></radialGradient><radialGradient
           gradientUnits="userSpaceOnUse"
           gradientTransform="matrix(1,0,0,0.9989,-2.7822672,222.11955)"
           r="70.864998"
           cy="194.7402"
           cx="169.3262"
           id="radialGradient7573"><stop
             id="stop7575"
             style="stop-color:#8ED8F8"
             offset="0" /><stop
             id="stop7577"
             style="stop-color:#85D5F7"
             offset="0.1343" /><stop
             id="stop7579"
             style="stop-color:#6DCFF6"
             offset="0.3264" /><stop
             id="stop7581"
             style="stop-color:#44C8F5"
             offset="0.5169" /><stop
             id="stop7583"
             style="stop-color:#00C0F3"
             offset="0.8315" /><stop
             id="stop7585"
             style="stop-color:#AAE1FA"
             offset="0.9326" /><stop
             id="stop7587"
             style="stop-color:#00B9F2"
             offset="1" /></radialGradient><ellipse
           style="opacity:0.7;fill:#00aeef;fill-opacity:1"
           id="ellipse7589"
           ry="70.786003"
           rx="70.865997"
           cy="416.64496"
           cx="166.54373" /></g><g
         transform="translate(-2.7822672,221.65395)"
         id="g7591"><path
           style="fill:#00aeef"
           inkscape:connector-curvature="0"
           id="path7593"
           d="m 255.066,239.003 c 0,0 11.709,0 13.396,0 2.334,0 3.778,1.91 3.778,3.705 0,1.797 0,4.548 0,4.548 l 0.338,0 c 3.536,-5.391 8.25,-9.266 16.164,-9.266 7.408,0 12.292,4.379 15.322,8.591 4.21,-4.716 8.756,-8.591 17.852,-8.591 8.588,0 18.688,5.562 18.688,20.887 l 0,65.495 c 0,0 -10.919,0 -13.429,0 -2.509,0 -3.745,-1.426 -3.745,-3.711 0,-2.283 0,-55.391 0,-55.391 0,-6.23 -3.033,-10.104 -8.42,-10.104 -6.398,0 -8.588,4.213 -8.588,11.79 l 0,57.416 -17.174,0 0,-59.102 c 0,-6.23 -3.032,-10.104 -8.42,-10.104 -6.398,0 -8.587,4.213 -8.587,11.79 l 0,57.416 -17.174,0 0,-85.369 z" /><path
           style="fill:#00aeef"
           inkscape:connector-curvature="0"
           id="path7595"
           d="m 393.118,288.173 c -2.156,0 -30.287,0 -30.287,0 l 0,11.619 c 0,5.389 3.197,8.416 8.42,8.416 6.566,0 8.082,-4.879 8.418,-8.59 l 17.176,0 c 0,7.078 -2.527,13.643 -6.906,18.189 -4.541,4.713 -10.775,7.576 -18.688,7.576 -10.439,0 -18.354,-4.879 -22.396,-12.293 -2.357,-4.379 -3.201,-10.436 -3.201,-17.342 l 0,-28.117 c 0,-6.904 0.844,-12.969 3.201,-17.347 4.043,-7.407 11.957,-12.295 22.396,-12.295 15.828,0 25.594,11.62 25.594,26.605 0,0 0,17.761 0,20.022 0,2.265 -1.574,3.557 -3.727,3.557 z m -30.287,-13.472 16.838,0 0,-9.767 c 0,-6.397 -3.197,-9.769 -8.418,-9.769 -5.223,0 -8.42,3.371 -8.42,9.769 l 0,9.767 z" /><path
           style="fill:#00aeef"
           inkscape:connector-curvature="0"
           id="path7597"
           d="m 401.896,320.675 c 0,-2.262 0,-81.672 0,-81.672 0,0 10.691,0 13.418,0 2.727,0 3.758,1.696 3.758,3.707 0,2.01 0,5.386 0,5.386 7.074,-6.23 12.797,-10.105 22.734,-10.105 l 0,18.188 c -1.684,-0.675 -3.371,-1.012 -5.223,-1.012 -7.242,0 -17.512,4.551 -17.512,18.521 l 0,50.685 c 0,0 -11.051,0 -13.492,0 -2.441,0 -3.683,-1.435 -3.683,-3.698 z" /><path
           style="fill:#00aeef"
           inkscape:connector-curvature="0"
           id="path7599"
           d="m 495.858,324.372 c 0,0 -11.303,0 -13.604,0 -2.301,0 -3.576,-1.721 -3.576,-3.697 0,-1.975 0,-4.549 0,-4.549 l -0.336,0 c -3.535,5.383 -8.25,9.258 -16.162,9.258 -8.588,0 -17.68,-5.555 -17.68,-20.879 l 0,-65.502 c 0,0 11.107,0 13.477,0 2.367,0 3.697,1.838 3.697,3.705 0,1.868 0,55.397 0,55.397 0,6.23 3.031,10.103 8.418,10.103 6.398,0 8.586,-4.209 8.586,-11.783 l 0,-57.422 17.18,0 0,85.369 z" /><path
           style="fill:#00aeef"
           inkscape:connector-curvature="0"
           id="path7601"
           d="m 535.927,324.372 c 0,0 -9.107,0 -11.709,0 -2.602,0 -3.889,-1.672 -4.396,-3.668 -0.512,-1.994 -21.275,-81.701 -21.275,-81.701 0,0 12.035,0 14.586,0 2.549,0 3.957,2.096 4.381,3.718 0.424,1.622 10.67,50.841 10.67,50.841 l 0.338,0 11.447,-54.559 18.188,0 -22.23,85.369 z" /><path
           style="fill:#00aeef"
           inkscape:connector-curvature="0"
           id="path7603"
           d="m 560.849,320.675 c 0,-1.938 0,-81.672 0,-81.672 0,0 11.547,0 13.486,0 1.939,0 3.689,1.805 3.689,3.743 0,1.938 0,81.626 0,81.626 0,0 -11.305,0 -13.459,0 -2.154,0 -3.716,-1.758 -3.716,-3.697 z" /><path
           style="fill:#00aeef"
           inkscape:connector-curvature="0"
           id="path7605"
           d="m 560.849,225.808 c 0,-1.94 0,-13.809 0,-13.809 0,0 11.547,0 13.486,0 1.939,0 3.689,1.805 3.689,3.743 0,1.938 0,13.762 0,13.762 0,0 -11.305,0 -13.459,0 -2.154,0 -3.716,-1.756 -3.716,-3.696 z" /><path
           style="fill:#00aeef"
           inkscape:connector-curvature="0"
           id="path7607"
           d="m 617.091,320.675 c 0,-2.119 0,-5.059 0,-5.059 l -0.336,0 c -4.551,6.23 -8.254,9.768 -16.5,9.768 -7.92,0 -18.527,-3.875 -18.527,-22.729 0,-19.536 5.559,-28.968 27.111,-28.968 2.359,0 4.715,0.339 8.252,0.51 l 0,-8.927 c 0,-5.728 -2.189,-10.104 -8.59,-10.104 -4.379,0 -8.756,3.035 -9.768,8.59 l -16.668,0 c 0.506,-7.578 3.199,-13.975 7.744,-18.523 4.545,-4.544 10.945,-7.242 18.691,-7.242 14.311,0 25.764,9.094 25.764,26.944 l 0,59.438 c 0,0 -11.41,0 -13.566,0 -2.156,0 -3.607,-1.579 -3.607,-3.698 z m 0,-33.005 c -1.852,-0.338 -3.201,-0.511 -4.717,-0.511 -7.406,0 -13.471,3.03 -13.471,12.123 0,6.568 3.367,10.945 8.922,10.945 5.729,0 9.266,-4.041 9.266,-10.945 l 0,-11.612 z" /><path
           style="fill:#00aeef"
           inkscape:connector-curvature="0"
           id="path7609"
           d="m 639.313,239.003 c 0,0 11.264,0 13.455,0 2.189,0 3.717,1.907 3.717,3.669 0,1.761 0,4.584 0,4.584 l 0.338,0 c 3.539,-5.391 8.254,-9.266 16.168,-9.266 8.586,0 17.68,5.562 17.68,20.887 l 0,65.495 c 0,0 -11.291,0 -13.518,0 -2.227,0 -3.658,-1.471 -3.658,-3.697 0,-2.226 0,-55.404 0,-55.404 0,-6.23 -3.029,-10.104 -8.418,-10.104 -6.4,0 -8.592,4.213 -8.592,11.79 l 0,57.416 -17.172,0 0,-85.37 z" /></g></g><g
       transform="matrix(0.15104719,0,0,0.15104719,542.86036,890.56475)"
       id="g7611"><path
         style="fill:#a7a9ac"
         inkscape:connector-curvature="0"
         id="path7613"
         d="m 260.645,205.904 c -0.102,0.375 -0.136,0.409 -0.478,0.409 l -3.172,0 c -0.273,0 -0.443,-0.068 -0.443,-0.341 -0.034,-0.103 0,-0.239 0.034,-0.375 l 2.319,-10.267 c 0.171,-0.853 0.41,-1.706 0.41,-2.797 0,-1.023 -0.307,-1.5 -0.307,-2.115 0,-0.239 0.239,-0.307 0.41,-0.375 l 2.729,-1.058 c 0.102,-0.034 0.17,-0.103 0.341,-0.103 0.375,0 0.682,1.535 0.682,3.445 0.921,-1.023 2.661,-3.445 5.287,-3.445 0.512,0 1.159,0.137 1.159,0.444 0,0.103 -0.034,0.17 -0.068,0.273 l -1.433,3.445 c -0.034,0.068 -0.136,0.17 -0.205,0.17 -0.239,0 -0.614,-0.238 -1.159,-0.238 -2.627,0 -4.162,3.888 -4.639,6.173 l -1.467,6.755 z" /><path
         style="fill:#a7a9ac"
         inkscape:connector-curvature="0"
         id="path7615"
         d="m 281.116,204.472 c 0.034,0.103 0.102,0.205 0.102,0.307 0,0.444 -3.172,2.115 -6.651,2.115 -4.093,0 -5.935,-2.559 -5.935,-6.344 0,-6.822 4.4,-11.666 9.653,-11.666 3.206,0 5.048,1.774 5.048,4.503 0,6.446 -8.664,6.446 -10.608,6.446 0,1.023 -0.273,3.649 2.933,3.649 2.013,0 3.82,-1.364 4.332,-1.364 0.171,0 0.205,0.103 0.273,0.239 l 0.853,2.115 z m -7.913,-7.709 c 1.466,0 6.037,0 6.037,-3.138 0,-0.887 -0.545,-1.671 -1.569,-1.671 -3.207,0 -4.161,3.547 -4.468,4.809 z" /><path
         style="fill:#a7a9ac"
         inkscape:connector-curvature="0"
         id="path7617"
         d="m 295.168,206.791 c -0.103,0.034 -0.239,0.103 -0.409,0.103 -0.375,0 -0.648,-1.365 -0.648,-3.07 -0.853,0.989 -2.421,3.07 -5.458,3.07 -2.421,0 -3.717,-1.706 -3.717,-5.117 0,-5.457 2.763,-12.893 8.663,-12.893 1.671,0 2.422,0.546 2.968,0.853 l 1.467,-6.822 c 0.068,-0.341 0.102,-0.478 0.614,-0.58 l 3.001,-0.614 c 0.137,-0.034 0.375,-0.102 0.478,-0.102 0.137,0 0.17,0.102 0.17,0.375 0,0.17 -0.068,0.443 -0.102,0.647 l -4.025,18.896 c -0.17,0.75 -0.136,1.364 -0.136,1.773 0.034,0.818 0.273,1.637 0.273,2.046 0,0.239 -0.239,0.307 -0.41,0.375 l -2.729,1.06 z m 0.785,-14.053 c -0.273,-0.136 -1.023,-0.614 -2.183,-0.614 -3.479,0 -4.741,5.457 -4.741,9.005 0,1.466 0.58,2.353 1.637,2.353 2.081,0 3.582,-2.66 4.093,-5.116 l 1.194,-5.628 z" /><path
         style="fill:#a7a9ac"
         inkscape:connector-curvature="0"
         id="path7619"
         d="m 315.292,204.472 c 0.034,0.103 0.102,0.205 0.102,0.307 0,0.444 -3.172,2.115 -6.651,2.115 -4.093,0 -5.935,-2.559 -5.935,-6.344 0,-6.822 4.4,-11.666 9.653,-11.666 3.206,0 5.048,1.774 5.048,4.503 0,6.446 -8.664,6.446 -10.608,6.446 0,1.023 -0.272,3.649 2.934,3.649 2.012,0 3.82,-1.364 4.332,-1.364 0.17,0 0.205,0.103 0.272,0.239 l 0.853,2.115 z m -7.913,-7.709 c 1.466,0 6.037,0 6.037,-3.138 0,-0.887 -0.545,-1.671 -1.569,-1.671 -3.206,0 -4.161,3.547 -4.468,4.809 z" /><path
         style="fill:#a7a9ac"
         inkscape:connector-curvature="0"
         id="path7621"
         d="m 324.194,206.553 c -0.648,3.206 -1.91,6.651 -6.549,6.651 -1.569,0 -3.036,-0.205 -3.036,-0.58 0,-0.137 0.034,-0.239 0.068,-0.375 l 0.716,-2.388 c 0.068,-0.171 0.136,-0.239 0.239,-0.239 0.103,0 0.682,0.171 1.399,0.171 2.319,0 2.728,-1.569 3.172,-3.752 l 2.66,-13.507 -2.421,0 c -0.205,0 -0.478,-0.034 -0.478,-0.341 0,-0.137 0.034,-0.273 0.068,-0.41 l 0.409,-1.91 c 0.034,-0.307 0.102,-0.409 0.478,-0.409 l 2.524,0 0.409,-2.148 c 0.512,-2.763 1.399,-5.458 6.071,-5.458 1.433,0 3.445,0.444 3.445,0.956 0,0.102 -0.034,0.17 -0.068,0.273 l -0.819,2.388 c -0.103,0.205 -0.205,0.238 -0.272,0.238 -0.342,0 -1.024,-0.443 -2.047,-0.443 -1.774,0 -2.012,1.33 -2.319,2.729 l -0.307,1.467 3.888,0 c 0.307,0 0.409,0.171 0.409,0.307 0,0.136 -0.068,0.273 -0.103,0.409 l -0.614,1.978 c -0.102,0.308 -0.137,0.375 -0.478,0.375 l -3.684,0 -2.76,14.018 z" /><path
         style="fill:#a7a9ac"
         inkscape:connector-curvature="0"
         id="path7623"
         d="m 336.131,205.904 c -0.068,0.375 -0.136,0.409 -0.478,0.409 l -3.172,0 c -0.272,0 -0.443,-0.068 -0.443,-0.341 0,-0.103 0,-0.239 0.034,-0.375 l 2.763,-13.063 -2.592,0 c -0.307,0 -0.443,-0.102 -0.443,-0.341 0,-0.137 0.034,-0.273 0.068,-0.41 l 0.375,-1.91 c 0.068,-0.375 0.17,-0.409 0.511,-0.409 l 6.344,0 c 0.273,0 0.409,0.103 0.409,0.307 0,0.136 0,0.341 -0.034,0.443 l -3.342,15.69 z m 2.32,-18.657 c -1.535,0 -2.797,-1.228 -2.797,-2.831 0,-1.706 1.433,-2.797 2.797,-2.797 1.398,0 2.831,1.125 2.831,2.797 0,1.603 -1.297,2.831 -2.831,2.831 z" /><path
         style="fill:#a7a9ac"
         inkscape:connector-curvature="0"
         id="path7625"
         d="m 354.345,205.904 c -0.068,0.375 -0.136,0.409 -0.478,0.409 l -3.172,0 c -0.273,0 -0.443,-0.068 -0.443,-0.341 0,-0.103 0.034,-0.239 0.034,-0.375 l 2.251,-9.721 c 0.17,-0.682 0.307,-1.364 0.307,-2.081 0,-0.785 -0.307,-1.33 -1.023,-1.33 -3.138,0 -4.264,4.229 -4.809,6.685 l -1.467,6.753 c -0.068,0.375 -0.136,0.409 -0.478,0.409 l -3.172,0 c -0.272,0 -0.443,-0.068 -0.443,-0.341 0,-0.103 0.034,-0.239 0.034,-0.375 l 2.319,-10.267 c 0.205,-0.853 0.409,-1.706 0.409,-2.797 0,-1.023 -0.307,-1.5 -0.307,-2.115 0,-0.239 0.238,-0.307 0.409,-0.375 l 2.729,-1.058 c 0.102,-0.034 0.17,-0.103 0.341,-0.103 0.375,0 0.682,1.535 0.682,3.445 0.921,-1.091 2.865,-3.445 5.662,-3.445 2.217,0 3.445,1.706 3.445,3.582 0,0.886 -0.137,1.808 -0.341,2.66 l -2.489,10.781 z" /><path
         style="fill:#a7a9ac"
         inkscape:connector-curvature="0"
         id="path7627"
         d="m 364.611,205.904 c -0.068,0.375 -0.137,0.409 -0.478,0.409 l -3.172,0 c -0.273,0 -0.444,-0.068 -0.444,-0.341 0,-0.103 0,-0.239 0.035,-0.375 l 2.762,-13.063 -2.592,0 c -0.307,0 -0.443,-0.102 -0.443,-0.341 0,-0.137 0.034,-0.273 0.068,-0.41 l 0.375,-1.91 c 0.068,-0.375 0.17,-0.409 0.512,-0.409 l 6.344,0 c 0.273,0 0.41,0.103 0.41,0.307 0,0.136 0,0.341 -0.034,0.443 l -3.343,15.69 z m 2.319,-18.657 c -1.535,0 -2.797,-1.228 -2.797,-2.831 0,-1.706 1.433,-2.797 2.797,-2.797 1.398,0 2.832,1.125 2.832,2.797 0,1.603 -1.297,2.831 -2.832,2.831 z" /><path
         style="fill:#a7a9ac"
         inkscape:connector-curvature="0"
         id="path7629"
         d="m 382.825,205.904 c -0.068,0.375 -0.136,0.409 -0.478,0.409 l -3.172,0 c -0.272,0 -0.443,-0.068 -0.443,-0.341 0,-0.103 0.034,-0.239 0.034,-0.375 l 2.251,-9.721 c 0.17,-0.682 0.307,-1.364 0.307,-2.081 0,-0.785 -0.307,-1.33 -1.023,-1.33 -3.138,0 -4.264,4.229 -4.81,6.685 l -1.467,6.753 c -0.068,0.375 -0.136,0.409 -0.477,0.409 l -3.172,0 c -0.273,0 -0.444,-0.068 -0.444,-0.341 0,-0.103 0.034,-0.239 0.034,-0.375 l 2.319,-10.267 c 0.205,-0.853 0.409,-1.706 0.409,-2.797 0,-1.023 -0.307,-1.5 -0.307,-2.115 0,-0.239 0.238,-0.307 0.409,-0.375 l 2.729,-1.058 c 0.102,-0.034 0.17,-0.103 0.341,-0.103 0.375,0 0.682,1.535 0.682,3.445 0.921,-1.091 2.865,-3.445 5.662,-3.445 2.217,0 3.445,1.706 3.445,3.582 0,0.886 -0.137,1.808 -0.341,2.66 l -2.488,10.781 z" /><path
         style="fill:#a7a9ac"
         inkscape:connector-curvature="0"
         id="path7631"
         d="m 401.789,200.105 c -1.194,5.662 -0.444,13.439 -9.107,13.439 -2.831,0 -6.174,-1.058 -6.174,-1.74 0,-0.136 0.068,-0.238 0.103,-0.341 l 1.058,-2.49 c 0.068,-0.171 0.17,-0.239 0.307,-0.239 0.546,0 2.285,1.398 5.014,1.398 4.264,0 3.513,-3.752 4.468,-6.617 l -0.068,-0.068 c -0.545,0.716 -2.251,2.865 -5.048,2.865 -3.001,0 -4.297,-2.388 -4.297,-5.526 0,-5.355 3.138,-11.904 8.118,-11.904 2.319,0 3.24,1.194 4.025,2.013 0.307,-0.443 1.331,-2.013 1.876,-2.013 0.137,0 0.341,0.137 0.478,0.205 l 2.081,1.125 c 0.17,0.103 0.239,0.205 0.239,0.341 0,0.341 -1.535,2.183 -2.013,4.502 l -1.06,5.05 z m -2.627,-6.923 c -0.443,-0.409 -1.296,-1.228 -2.66,-1.228 -2.797,0 -4.366,5.458 -4.366,8.937 0,1.603 0.546,2.354 1.74,2.354 2.217,0 3.547,-1.91 4.093,-4.502 l 1.193,-5.561 z" /><path
         style="fill:#a7a9ac"
         inkscape:connector-curvature="0"
         id="path7633"
         d="m 426.892,204.983 c 0.034,0.103 0.103,0.205 0.103,0.341 0,0.614 -2.694,1.569 -4.639,1.569 -3.752,0 -6.344,-2.217 -6.344,-6.651 0,-7.026 4.297,-11.358 9.482,-11.358 2.661,0 4.57,1.194 4.57,1.535 0,0.103 -0.136,0.307 -0.204,0.41 l -1.296,2.114 c -0.103,0.171 -0.205,0.205 -0.307,0.205 -0.308,0 -0.854,-0.853 -3.002,-0.853 -3.07,0 -4.912,3.922 -4.912,8.288 0,1.876 0.853,2.729 2.524,2.729 1.603,0 2.49,-0.785 2.899,-0.785 0.103,0 0.238,0.103 0.272,0.171 l 0.854,2.285 z" /><path
         style="fill:#a7a9ac"
         inkscape:connector-curvature="0"
         id="path7635"
         d="m 435.146,205.904 c -0.069,0.375 -0.137,0.409 -0.479,0.409 l -3.171,0 c -0.274,0 -0.444,-0.068 -0.444,-0.341 0,-0.103 0,-0.239 0.033,-0.375 l 2.764,-13.063 -2.592,0 c -0.308,0 -0.444,-0.102 -0.444,-0.341 0,-0.137 0.035,-0.273 0.069,-0.41 l 0.375,-1.91 c 0.067,-0.375 0.17,-0.409 0.512,-0.409 l 6.344,0 c 0.272,0 0.409,0.103 0.409,0.307 0,0.136 0,0.341 -0.034,0.443 l -3.342,15.69 z m 2.319,-18.657 c -1.534,0 -2.797,-1.228 -2.797,-2.831 0,-1.706 1.433,-2.797 2.797,-2.797 1.399,0 2.831,1.125 2.831,2.797 0,1.603 -1.296,2.831 -2.831,2.831 z" /><path
         style="fill:#a7a9ac"
         inkscape:connector-curvature="0"
         id="path7637"
         d="m 447.492,206.348 c -0.137,0.239 -0.204,0.307 -0.478,0.307 l -2.831,0 c -0.238,0 -0.443,0 -0.478,-0.443 l -1.944,-15.894 c -0.034,-0.171 -0.034,-0.341 -0.034,-0.444 0,-0.136 0.137,-0.307 0.512,-0.341 l 2.524,-0.341 c 0.272,-0.034 0.579,-0.068 0.716,-0.068 0.272,0 0.342,0.136 0.342,0.682 l 0.511,7.879 c 0.103,1.637 0.137,4.229 0.137,4.57 l 0.068,0 c 0.342,-0.989 1.16,-2.899 1.979,-4.57 l 4.059,-8.289 c 0.068,-0.136 0.205,-0.272 0.375,-0.272 0.137,0 0.273,0.034 0.58,0.068 l 2.523,0.341 c 0.376,0.034 0.512,0.136 0.512,0.341 0,0.103 -0.136,0.273 -0.238,0.478 l -8.835,15.996 z" /><path
         style="fill:#a7a9ac"
         inkscape:connector-curvature="0"
         id="path7639"
         d="m 461.716,205.904 c -0.068,0.375 -0.137,0.409 -0.478,0.409 l -3.172,0 c -0.272,0 -0.444,-0.068 -0.444,-0.341 0,-0.103 0,-0.239 0.034,-0.375 l 2.763,-13.063 -2.592,0 c -0.308,0 -0.443,-0.102 -0.443,-0.341 0,-0.137 0.034,-0.273 0.068,-0.41 l 0.375,-1.91 c 0.068,-0.375 0.171,-0.409 0.512,-0.409 l 6.344,0 c 0.273,0 0.409,0.103 0.409,0.307 0,0.136 0,0.341 -0.033,0.443 l -3.343,15.69 z m 2.319,-18.657 c -1.535,0 -2.797,-1.228 -2.797,-2.831 0,-1.706 1.433,-2.797 2.797,-2.797 1.398,0 2.83,1.125 2.83,2.797 0,1.603 -1.295,2.831 -2.83,2.831 z" /><path
         style="fill:#a7a9ac"
         inkscape:connector-curvature="0"
         id="path7641"
         d="m 474.267,205.563 c 0,0.102 0.034,0.238 0.034,0.341 0,0.511 -2.115,0.989 -3.445,0.989 -1.979,0 -3.309,-0.648 -3.309,-2.865 0,-1.228 0.137,-2.422 0.409,-3.615 l 3.787,-17.498 c 0.067,-0.341 0.103,-0.478 0.613,-0.58 l 3.002,-0.614 c 0.136,-0.034 0.375,-0.102 0.477,-0.102 0.137,0 0.172,0.102 0.172,0.341 0,0.205 -0.069,0.478 -0.103,0.682 l -3.854,17.736 c -0.171,0.819 -0.409,1.671 -0.409,2.149 0,0.478 0.272,0.683 0.784,0.683 0.579,0 1.091,-0.239 1.262,-0.239 0.103,0 0.205,0.035 0.239,0.239 l 0.341,2.353 z" /><path
         style="fill:#a7a9ac"
         inkscape:connector-curvature="0"
         id="path7643"
         d="m 481.976,205.904 c -0.068,0.375 -0.137,0.409 -0.478,0.409 l -3.172,0 c -0.273,0 -0.443,-0.068 -0.443,-0.341 0,-0.103 0,-0.239 0.033,-0.375 l 2.764,-13.063 -2.592,0 c -0.309,0 -0.444,-0.102 -0.444,-0.341 0,-0.137 0.034,-0.273 0.068,-0.41 l 0.376,-1.91 c 0.067,-0.375 0.17,-0.409 0.512,-0.409 l 6.344,0 c 0.272,0 0.409,0.103 0.409,0.307 0,0.136 0,0.341 -0.034,0.443 l -3.343,15.69 z m 2.319,-18.657 c -1.534,0 -2.797,-1.228 -2.797,-2.831 0,-1.706 1.433,-2.797 2.797,-2.797 1.398,0 2.831,1.125 2.831,2.797 0,1.603 -1.296,2.831 -2.831,2.831 z" /><path
         style="fill:#a7a9ac"
         inkscape:connector-curvature="0"
         id="path7645"
         d="m 498.347,206.006 c -0.171,0.273 -0.204,0.307 -0.546,0.307 l -11.256,0 c -0.307,0 -0.478,-0.068 -0.478,-0.307 0,-0.136 0.034,-0.239 0.068,-0.409 l 0.443,-2.183 10.198,-10.54 -6.753,0 c -0.307,0 -0.443,-0.103 -0.443,-0.341 0,-0.136 0.034,-0.273 0.067,-0.444 l 0.479,-2.217 c 0.067,-0.307 0.136,-0.409 0.477,-0.409 l 11.018,0 c 0.273,0 0.443,0.103 0.443,0.341 0,0.137 -0.034,0.273 -0.068,0.41 l -0.478,2.319 -9.994,10.369 8.152,0 c 0.272,0 0.375,0.205 0.375,0.375 0,0.136 -0.103,0.238 -0.17,0.341 l -1.534,2.388 z" /><path
         style="fill:#a7a9ac"
         inkscape:connector-curvature="0"
         id="path7647"
         d="m 513.66,206.791 c -0.103,0.034 -0.238,0.103 -0.409,0.103 -0.375,0 -0.647,-1.365 -0.647,-3.07 -0.751,0.853 -2.524,3.07 -5.492,3.07 -2.49,0 -3.785,-2.047 -3.785,-5.628 0,-6.753 3.752,-12.382 8.083,-12.382 2.218,0 3.24,1.262 3.786,1.842 l 0.375,-0.921 c 0.103,-0.272 0.239,-0.341 0.479,-0.341 l 2.694,0 c 0.272,0 0.375,0.171 0.375,0.341 0,0.137 -0.035,0.273 -0.068,0.41 l -2.252,10.676 c -0.17,0.75 -0.272,1.91 -0.272,2.422 0.035,0.818 0.272,1.637 0.272,2.046 0,0.239 -0.237,0.307 -0.409,0.375 l -2.73,1.057 z m 0.683,-13.609 c -0.512,-0.409 -1.297,-1.228 -2.524,-1.228 -2.899,0 -4.4,5.935 -4.4,9.482 0,1.33 0.513,2.046 1.434,2.046 2.523,0 3.819,-2.592 4.297,-4.741 l 1.193,-5.559 z" /><path
         style="fill:#a7a9ac"
         inkscape:connector-curvature="0"
         id="path7649"
         d="m 532.011,205.086 c 0,0.102 0.034,0.205 0.034,0.307 0,0.545 -3.274,1.501 -5.457,1.501 -2.456,0 -4.094,-0.921 -4.094,-3.445 0,-0.75 0.104,-1.467 0.273,-2.183 l 1.842,-8.732 -2.251,0 c -0.307,0 -0.443,-0.102 -0.443,-0.341 0,-0.171 0.034,-0.307 0.067,-0.444 l 0.41,-1.876 c 0.034,-0.307 0.205,-0.409 0.478,-0.409 l 2.388,0 0.886,-4.229 c 0.069,-0.307 0.239,-0.341 0.444,-0.375 l 3.104,-0.443 c 0.137,0 0.273,-0.034 0.443,-0.034 0.137,0 0.239,0.136 0.239,0.307 0,0.136 -0.034,0.307 -0.069,0.478 l -0.954,4.297 4.57,0 c 0.308,0 0.478,0.137 0.478,0.341 0,0.171 -0.103,0.308 -0.137,0.478 l -0.682,1.911 c -0.137,0.307 -0.17,0.341 -0.479,0.341 l -4.399,0 -1.637,8.083 c -0.137,0.546 -0.239,1.092 -0.239,1.637 0,0.819 0.444,1.228 1.33,1.228 1.535,0 2.865,-0.784 3.07,-0.784 0.171,0 0.205,0.068 0.272,0.239 l 0.513,2.147 z" /><path
         style="fill:#a7a9ac"
         inkscape:connector-curvature="0"
         id="path7651"
         d="m 539.549,205.904 c -0.069,0.375 -0.137,0.409 -0.479,0.409 l -3.171,0 c -0.274,0 -0.444,-0.068 -0.444,-0.341 0,-0.103 0,-0.239 0.034,-0.375 l 2.763,-13.063 -2.592,0 c -0.308,0 -0.444,-0.102 -0.444,-0.341 0,-0.137 0.035,-0.273 0.069,-0.41 l 0.375,-1.91 c 0.067,-0.375 0.17,-0.409 0.512,-0.409 l 6.344,0 c 0.272,0 0.409,0.103 0.409,0.307 0,0.136 0,0.341 -0.034,0.443 l -3.342,15.69 z m 2.318,-18.657 c -1.534,0 -2.797,-1.228 -2.797,-2.831 0,-1.706 1.433,-2.797 2.797,-2.797 1.399,0 2.831,1.125 2.831,2.797 0,1.603 -1.296,2.831 -2.831,2.831 z" /><path
         style="fill:#a7a9ac"
         inkscape:connector-curvature="0"
         id="path7653"
         d="m 550.804,206.894 c -3.581,0 -5.798,-1.842 -5.798,-6.208 0,-6.31 4.024,-11.802 9.687,-11.802 3.445,0 5.594,1.842 5.594,6.208 -0.001,6.31 -3.958,11.802 -9.483,11.802 z m 5.15,-12.109 c 0,-1.604 -0.613,-2.49 -2.08,-2.49 -3.173,0 -4.537,5.389 -4.537,8.697 0,1.604 0.614,2.49 2.081,2.49 3.172,0 4.536,-5.389 4.536,-8.697 z" /><path
         style="fill:#a7a9ac"
         inkscape:connector-curvature="0"
         id="path7655"
         d="m 575.157,205.904 c -0.068,0.375 -0.137,0.409 -0.478,0.409 l -3.172,0 c -0.272,0 -0.444,-0.068 -0.444,-0.341 0,-0.103 0.035,-0.239 0.035,-0.375 l 2.251,-9.721 c 0.171,-0.682 0.307,-1.364 0.307,-2.081 0,-0.785 -0.307,-1.33 -1.023,-1.33 -3.137,0 -4.264,4.229 -4.809,6.685 l -1.467,6.753 c -0.068,0.375 -0.137,0.409 -0.478,0.409 l -3.172,0 c -0.273,0 -0.443,-0.068 -0.443,-0.341 0,-0.103 0.034,-0.239 0.034,-0.375 l 2.318,-10.267 c 0.205,-0.853 0.41,-1.706 0.41,-2.797 0,-1.023 -0.308,-1.5 -0.308,-2.115 0,-0.239 0.239,-0.307 0.409,-0.375 l 2.729,-1.058 c 0.103,-0.034 0.172,-0.103 0.342,-0.103 0.375,0 0.682,1.535 0.682,3.445 0.922,-1.091 2.865,-3.445 5.662,-3.445 2.218,0 3.445,1.706 3.445,3.582 0,0.886 -0.137,1.808 -0.341,2.66 l -2.489,10.781 z" /></g></g></svg>